<svg xmlns="http://www.w3.org/2000/svg" version="1.1" xmlns:xlink="http://www.w3.org/1999/xlink" xmlns:svgjs="http://svgjs.dev/svgjs" width="1000" height="1000" viewBox="0 0 1000 1000"><rect width="1000" height="1000" fill="#000000"></rect><g transform="matrix(0.7,0,0,0.7,149.57575757575756,372.05302820119107)"><svg viewBox="0 0 396 145" data-background-color="#051726" preserveAspectRatio="xMidYMid meet" height="366" width="1000" xmlns="http://www.w3.org/2000/svg" xmlns:xlink="http://www.w3.org/1999/xlink"><defs></defs><g id="tight-bounds" transform="matrix(1,0,0,1,0.2400000000000091,-0.08660846671627098)"><svg viewBox="0 0 395.52 145.17321693343254" height="145.17321693343254" width="395.52"><g><svg viewBox="0 0 650.4318937317701 238.73708133380262" height="145.17321693343254" width="395.52"><g transform="matrix(1,0,0,1,252.9342937317702,73.7732233762591)"><svg viewBox="0 0 397.4975999999999 91.19063458128443" height="91.19063458128443" width="397.4975999999999"><g><svg viewBox="0 0 397.4975999999999 91.19063458128443" height="91.19063458128443" width="397.4975999999999"><g><rect width="397.4975999999999" height="5.423045226771867" x="0" y="66.52350239240769" fill="#ffffff" opacity="1" stroke-width="0" stroke="transparent" fill-opacity="1" class="rect-o-0" data-fill-palette-color="primary" rx="1%" id="o-0" data-palette-color="#ffffff"></rect></g><g transform="matrix(1,0,0,1,0.9887999999999693,0)"><svg viewBox="0 0 395.52 60.13509832945654" height="60.13509832945654" width="395.52"><g transform="matrix(1,0,0,1,0,0)"><svg width="395.52" viewBox="0 -35.45000076293945 236.42999267578125 35.95000076293945" height="60.13509832945654" data-palette-color="#ffffff"><path d="M8.1 0L8.1-31.6 0-31.6 0-35 20.1-35 20.1-31.6 11.7-31.6 11.7 0 8.1 0ZM41.9 0L41.9-17.15 27.6-17.15 27.6 0 24 0 24-35 27.6-35 27.6-20.65 41.9-20.65 41.9-35 45.5-35 45.5 0 41.9 0ZM53.4 0L53.4-35 70.09-35 70.09-31.55 57-31.55 57-20.65 65.75-20.65 64.59-17.15 57-17.15 57-3.25 70-3.25 70 0 53.4 0ZM90.54 0L90.54-35 94.14-35 94.14-3.25 108.59-3.25 108.59 0 90.54 0ZM112.54 0L112.54-35 129.24-35 129.24-31.55 116.14-31.55 116.14-20.65 124.89-20.65 123.74-17.15 116.14-17.15 116.14-3.25 129.14-3.25 129.14 0 112.54 0ZM135.79 0L135.79-35.05 145.19-35.05Q150.84-35.05 153.81-31.95 156.79-28.85 156.79-23.7L156.79-23.7 156.79-10Q156.79 0 146.19 0L146.19 0 135.79 0ZM153.19-24.2Q153.19-27.95 151.01-29.78 148.84-31.6 145.69-31.6L145.69-31.6 139.39-31.6 139.39-3.25 145.39-3.25Q148.74-3.25 150.96-4.5 153.19-5.75 153.19-9.5L153.19-9.5 153.19-24.2ZM181.48 0L180.88-1.55Q178.48 0.5 174.48 0.5L174.48 0.5Q171.68 0.5 169.28-0.55 166.88-1.6 165.41-3.85 163.93-6.1 163.93-9.45L163.93-9.45 163.93-25.15Q163.93-28.65 165.06-30.78 166.18-32.9 168.28-34.2L168.28-34.2Q170.48-35.45 173.68-35.45L173.68-35.45Q177.58-35.45 180.73-33.8L180.73-33.8 179.68-31Q176.98-32 174.53-32L174.53-32Q167.53-32 167.53-25.6L167.53-25.6 167.53-9.35Q167.53-6.3 169.43-4.67 171.33-3.05 174.43-3.05L174.43-3.05Q177.33-3.05 179.16-4.7 180.98-6.35 180.98-9.3L180.98-9.3 180.98-11.5 177.83-11.5 176.63-15 184.48-15 184.48 0 181.48 0ZM191.43 0L191.43-35 208.13-35 208.13-31.55 195.03-31.55 195.03-20.65 203.78-20.65 202.63-17.15 195.03-17.15 195.03-3.25 208.03-3.25 208.03 0 191.43 0ZM232.73 0L228.78-11.6Q227.88-11.5 227.18-11.5L227.18-11.5 218.28-11.5 218.28 0 214.68 0 214.68-35 226.83-35Q231.63-35 234-31.95 236.38-28.9 236.38-23.95L236.38-23.95Q236.38-20.2 235.6-17.32 234.83-14.45 232.13-12.75L232.13-12.75 236.43 0 232.73 0ZM226.73-15Q229.43-15 230.73-16.43 232.03-17.85 232.35-19.68 232.68-21.5 232.68-23.8L232.68-23.8Q232.68-31.5 226.28-31.5L226.28-31.5 218.28-31.5 218.28-15 226.73-15Z" opacity="1" transform="matrix(1,0,0,1,0,0)" fill="#ffffff" class="undefined-text-0" data-fill-palette-color="primary" id="text-0"></path></svg></g></svg></g><g transform="matrix(1,0,0,1,0,78.33495168213071)"><svg viewBox="0 0 232.20979199999996 12.855682899153715" height="12.855682899153715" width="232.20979199999996"><g transform="matrix(1,0,0,1,0,0)"><svg width="232.20979199999996" viewBox="4.320000171661377 -36.11000061035156 793.27001953125 43.92000198364258" height="12.855682899153715" data-palette-color="#81ffd9"><path d="M20.48-10.13L20.48-10.13 22.66-10.03Q27.39-10.03 30.47-13.16L30.47-13.16Q33.59-16.31 33.74-21.31L33.74-21.31Q34.01-29.03 26.32-31.74L26.32-31.74Q23.44-32.76 18.82-32.76L18.82-32.76 16.77-32.76 16.77 0 4.32 0 4.32-34.55 13.67-34.55Q21.24-34.55 22.8-34.33 24.37-34.11 26.06-33.76 27.76-33.42 29.72-32.28 31.69-31.13 33.06-29.54L33.06-29.54Q35.82-26.32 35.72-21.97L35.72-21.97Q35.57-16.43 32.47-12.74L32.47-12.74Q29.32-9.03 23.78-8.15L23.78-8.15Q22.17-7.93 21.24-7.93L21.24-7.93Q19.04-7.93 19.04-9.13L19.04-9.13Q19.04-9.57 19.43-9.85 19.82-10.13 20.48-10.13ZM63.91-5.93L63.91-5.93Q64.87-5.93 64.87-5.05L64.87-5.05Q64.87-4.39 64.01-3.49L64.01-3.49Q60.15 0.46 53.44 0.46L53.44 0.46Q47.41 0.46 43.28-3.17L43.28-3.17Q39.01-6.96 39.01-12.74L39.01-12.74Q39.01-18.65 42.87-22.46L42.87-22.46Q46.95-26.51 53.71-26.51L53.71-26.51Q59.13-26.51 62.81-23.22L62.81-23.22Q66.79-19.68 66.79-13.92L66.79-13.92Q66.79-13.09 66.75-12.16L66.75-12.16 50.63-12.16 50.63-1.68Q52.29-1.34 54.37-1.34L54.37-1.34Q58.76-1.34 61.86-4.25L61.86-4.25Q62.5-4.88 62.77-5.25L62.77-5.25Q63.33-5.93 63.91-5.93ZM57.39-13.94L57.39-24.27Q55.81-24.73 53.81-24.73 51.8-24.73 50.63-24.46L50.63-24.46 50.63-13.94 57.39-13.94ZM72.99 0L72.99-26.07 83.49-26.07 83.49-18.41Q85.18-22.58 87.12-24.55 89.06-26.51 91.01-26.51L91.01-26.51Q92.11-26.51 92.76-25.94 93.4-25.37 93.4-24.66 93.4-23.95 93.21-23.54 93.01-23.12 92.7-22.83L92.7-22.83Q92.04-22.22 91.45-22.22L91.45-22.22Q90.52-22.22 90.08-22.41L90.08-22.41Q89.33-22.75 88.74-22.75 88.15-22.75 87.25-21.81 86.35-20.87 85.52-19.21L85.52-19.21Q83.49-15.16 83.49-10.42L83.49-10.42 83.49 0 72.99 0ZM94.65-3.27L94.65-3.27Q94.65-3.64 94.9-3.94 95.16-4.25 95.57-4.25 95.99-4.25 96.26-4L96.26-4Q96.26-4 96.87-3.44L96.87-3.44Q99.41-1.22 103.97-1.22L103.97-1.22Q107.05-1.22 107.93-2.49L107.93-2.49Q108.17-2.83 108.17-3.19 108.17-3.54 108.04-3.87 107.9-4.2 107.46-4.68 107.02-5.15 106.22-5.81L106.22-5.81 104.07-7.54Q98.75-11.69 96.77-14.28L96.77-14.28Q94.96-16.65 94.96-19.12L94.96-19.12Q94.96-22.22 97.82-24.32L97.82-24.32Q100.77-26.51 105.46-26.51L105.46-26.51Q108.76-26.51 110.66-25.76 112.57-25 113.35-24.38 114.13-23.75 114.13-23.24L114.13-23.24Q114.13-22.19 113.3-22.19L113.3-22.19Q112.91-22.19 112.58-22.47 112.25-22.75 111.27-23.43 110.3-24.1 108.68-24.49 107.07-24.88 105.68-24.88 104.29-24.88 103.72-24.44 103.14-24 103.14-23.57 103.14-23.14 103.31-22.77 103.48-22.39 103.95-21.88L103.95-21.88Q105.02-20.61 107.39-18.87 109.76-17.14 111.39-15.7 113.03-14.26 113.96-13.04L113.96-13.04Q115.64-10.84 115.64-8.59 115.64-6.35 114.81-4.75 113.98-3.15 112.44-2L112.44-2Q109.2 0.46 103.78 0.46L103.78 0.46Q99.43 0.46 96.53-1.2L96.53-1.2Q94.65-2.25 94.65-3.27ZM119.28-13.18L119.28-13.18Q119.28-16.11 120.34-18.52 121.4-20.92 123.26-22.71L123.26-22.71Q127.26-26.51 133.32-26.51L133.32-26.51Q139.49-26.51 143.37-22.56L143.37-22.56Q147.08-18.82 147.08-13.11L147.08-13.11Q147.08-7.37 143.28-3.52L143.28-3.52Q139.35 0.46 133.22 0.46L133.22 0.46Q127.24 0.46 123.31-3.32L123.31-3.32Q119.28-7.23 119.28-13.18ZM132.53-24.71L132.53-1.37Q132.73-1.34 132.92-1.34L132.92-1.34 133.27-1.34Q138.2-1.34 141.54-4.39L141.54-4.39Q145.11-7.69 145.11-13.04L145.11-13.04Q145.11-18.26 141.76-21.51L141.76-21.51Q138.47-24.73 133.24-24.73L133.24-24.73 132.88-24.73Q132.7-24.73 132.53-24.71L132.53-24.71ZM171.4 0L171.4-23.41Q170.79-23.8 170.08-23.8 169.37-23.8 168.62-23.47 167.86-23.14 167.03-22.56L167.03-22.56Q165.3-21.31 163.83-19.24L163.83-19.24 163.83 0 153.33 0 153.33-26.07 163.83-26.07 163.83-21.9Q168.01-26.51 173.28-26.51L173.28-26.51Q181.9-26.51 181.9-18.16L181.9-18.16 181.9 0 171.4 0ZM206.21 0L206.21-1.61Q203.09 0.46 199.28 0.46L199.28 0.46Q194.22 0.46 191.17-2.08L191.17-2.08Q188-4.69 188-9.33L188-9.33Q188-13.43 191.15-16.06L191.15-16.06Q194.37-18.73 199.62-18.73L199.62-18.73Q203.13-18.73 206.21-17.38L206.21-17.38 206.21-24.1Q203.99-24.73 202.29-24.73 200.6-24.73 199.42-24.58 198.25-24.44 197.2-24.15L197.2-24.15Q194.93-23.51 193.76-22.44L193.76-22.44Q193.08-21.8 192.51-21.8 191.95-21.8 191.66-22.08 191.37-22.36 191.37-22.71 191.37-23.05 191.49-23.33 191.61-23.61 191.95-23.9L191.95-23.9Q192.69-24.54 194.39-25.17L194.39-25.17Q197.93-26.51 201.5-26.51L201.5-26.51Q212.34-26.51 215.34-21.34L215.34-21.34Q216.66-19.04 216.66-15.31L216.66-15.31 216.66 0 206.21 0ZM206.21-3.71L206.21-15.48Q203.13-16.97 200.08-16.97L200.08-16.97Q199.59-16.97 199.15-16.89L199.15-16.89 199.15-1.37Q199.28-1.34 199.42-1.34 199.57-1.34 199.72-1.34L199.72-1.34Q203.06-1.34 206.21-3.71L206.21-3.71ZM224.3 0L224.3-34.55 234.8-34.55 234.8 0 224.3 0ZM275.42-2.1L275.42-2.1Q276.66-2.1 276.66-1.12L276.66-1.12Q276.66-0.68 276.12-0.34 275.59 0 274.27 0L274.27 0 253.59 0 253.59-34.55Q263.21-34.55 272.83-34.55L272.83-34.55 274.83-34.62Q276.66-34.62 276.66-33.54L276.66-33.54Q276.66-33.13 276.36-32.78 276.05-32.42 275.66-32.42L275.66-32.42Q275.03-32.42 274.32-32.57L274.32-32.57Q273.27-32.79 271.44-32.79L271.44-32.79 266.04-32.79 266.04-25.34 270.49-25.34Q270.49-25.34 273.49-25.46L273.49-25.46Q274.03-25.46 274.4-25.21 274.78-24.95 274.78-24.49L274.78-24.49Q274.78-23.46 273.42-23.46L273.42-23.46 272.37-23.49Q271.56-23.56 271.02-23.56L271.02-23.56 266.04-23.56 266.04-1.78 271.44-1.78Q273.24-1.78 274-1.93L274-1.93Q274.9-2.1 275.42-2.1ZM280.43 0.46Q280.08 0.46 279.78 0.18 279.49-0.1 279.49-0.49L279.49-0.49Q279.49-1.27 280.37-1.93L280.37-1.93Q281.25-2.59 281.64-3.13L281.64-3.13Q281.64-3.13 288.11-11.06L288.11-11.06 279.13-26.07 290.23-26.07 295.41-17.46Q299.93-23.27 300.27-23.8L300.27-23.8Q300.93-24.83 301.15-25.39L301.15-25.39Q301.61-26.51 302.44-26.51L302.44-26.51Q302.83-26.51 303.14-26.26 303.44-26 303.44-25.63 303.44-25.27 303.31-24.9 303.17-24.54 302.86-23.97L302.86-23.97Q302.22-22.9 300.63-20.87L300.63-20.87 296.51-15.63 305.91 0 294.75 0 289.18-9.28 283.23-1.78Q281.69 0.15 281.03 0.39L281.03 0.39Q280.79 0.46 280.43 0.46ZM326.24 0.46L326.24 0.46Q322.85 0.46 319.67-1.07L319.67-1.07 319.67 7.81 309.64 7.81 309.64-26.07 319.67-26.07 319.67-24.73Q322.87-26.51 326.22-26.51 329.56-26.51 332.13-25.51 334.69-24.51 336.52-22.75L336.52-22.75Q340.3-19.04 340.3-13.26L340.3-13.26Q340.3-7.42 336.57-3.56L336.57-3.56Q332.71 0.46 326.24 0.46ZM326.17-24.73L326.17-24.73Q322.56-24.73 319.67-22.73L319.67-22.73 319.67-3.25Q322.97-1.34 326.85-1.34L326.85-1.34 327.49-1.34Q327.78-1.34 328.05-1.39L328.05-1.39 328.05-24.58Q327.12-24.73 326.17-24.73ZM369.21-5.93L369.21-5.93Q370.16-5.93 370.16-5.05L370.16-5.05Q370.16-4.39 369.31-3.49L369.31-3.49Q365.45 0.46 358.73 0.46L358.73 0.46Q352.7 0.46 348.58-3.17L348.58-3.17Q344.31-6.96 344.31-12.74L344.31-12.74Q344.31-18.65 348.16-22.46L348.16-22.46Q352.24-26.51 359-26.51L359-26.51Q364.42-26.51 368.11-23.22L368.11-23.22Q372.09-19.68 372.09-13.92L372.09-13.92Q372.09-13.09 372.04-12.16L372.04-12.16 355.93-12.16 355.93-1.68Q357.59-1.34 359.66-1.34L359.66-1.34Q364.06-1.34 367.16-4.25L367.16-4.25Q367.79-4.88 368.06-5.25L368.06-5.25Q368.62-5.93 369.21-5.93ZM362.69-13.94L362.69-24.27Q361.1-24.73 359.1-24.73 357.1-24.73 355.93-24.46L355.93-24.46 355.93-13.94 362.69-13.94ZM396.35 0L396.35-23.41Q395.74-23.8 395.04-23.8 394.33-23.8 393.57-23.47 392.81-23.14 391.98-22.56L391.98-22.56Q390.25-21.31 388.79-19.24L388.79-19.24 388.79 0 378.29 0 378.29-26.07 388.79-26.07 388.79-21.9Q392.96-26.51 398.23-26.51L398.23-26.51Q406.85-26.51 406.85-18.16L406.85-18.16 406.85 0 396.35 0ZM412.93-3.27L412.93-3.27Q412.93-3.64 413.19-3.94 413.44-4.25 413.86-4.25 414.27-4.25 414.54-4L414.54-4Q414.54-4 415.15-3.44L415.15-3.44Q417.69-1.22 422.26-1.22L422.26-1.22Q425.33-1.22 426.21-2.49L426.21-2.49Q426.45-2.83 426.45-3.19 426.45-3.54 426.32-3.87 426.19-4.2 425.75-4.68 425.31-5.15 424.5-5.81L424.5-5.81 422.35-7.54Q417.03-11.69 415.05-14.28L415.05-14.28Q413.25-16.65 413.25-19.12L413.25-19.12Q413.25-22.22 416.1-24.32L416.1-24.32Q419.06-26.51 423.74-26.51L423.74-26.51Q427.04-26.51 428.94-25.76 430.85-25 431.63-24.38 432.41-23.75 432.41-23.24L432.41-23.24Q432.41-22.19 431.58-22.19L431.58-22.19Q431.19-22.19 430.86-22.47 430.53-22.75 429.55-23.43 428.58-24.1 426.97-24.49 425.36-24.88 423.96-24.88 422.57-24.88 422-24.44 421.42-24 421.42-23.57 421.42-23.14 421.6-22.77 421.77-22.39 422.23-21.88L422.23-21.88Q423.3-20.61 425.67-18.87 428.04-17.14 429.68-15.7 431.31-14.26 432.24-13.04L432.24-13.04Q433.92-10.84 433.92-8.59 433.92-6.35 433.09-4.75 432.26-3.15 430.73-2L430.73-2Q427.48 0.46 422.06 0.46L422.06 0.46Q417.71 0.46 414.81-1.2L414.81-1.2Q412.93-2.25 412.93-3.27ZM462.46-5.93L462.46-5.93Q463.41-5.93 463.41-5.05L463.41-5.05Q463.41-4.39 462.56-3.49L462.56-3.49Q458.7 0.46 451.99 0.46L451.99 0.46Q445.96 0.46 441.83-3.17L441.83-3.17Q437.56-6.96 437.56-12.74L437.56-12.74Q437.56-18.65 441.42-22.46L441.42-22.46Q445.49-26.51 452.26-26.51L452.26-26.51Q457.68-26.51 461.36-23.22L461.36-23.22Q465.34-19.68 465.34-13.92L465.34-13.92Q465.34-13.09 465.29-12.16L465.29-12.16 449.18-12.16 449.18-1.68Q450.84-1.34 452.92-1.34L452.92-1.34Q457.31-1.34 460.41-4.25L460.41-4.25Q461.05-4.88 461.32-5.25L461.32-5.25Q461.88-5.93 462.46-5.93ZM455.94-13.94L455.94-24.27Q454.36-24.73 452.36-24.73 450.35-24.73 449.18-24.46L449.18-24.46 449.18-13.94 455.94-13.94ZM507.84-33.91L507.84-33.91Q507.84-32.79 505.48-32.79L505.48-32.79 499.81-32.79 499.81 0 487.31 0 487.31-32.79 483.65-32.79Q481.77-32.79 481.06-32.62L481.06-32.62Q480.13-32.42 479.72-32.42L479.72-32.42Q478.47-32.42 478.47-33.4L478.47-33.4Q478.47-34.55 480.89-34.55L480.89-34.55 502.67-34.55Q504.35-34.55 505.16-34.69L505.16-34.69Q506.13-34.86 506.62-34.86L506.62-34.86Q507.84-34.86 507.84-33.91ZM512.92 0L512.92-26.07 523.42-26.07 523.42-18.41Q525.1-22.58 527.04-24.55 528.98-26.51 530.94-26.51L530.94-26.51Q532.04-26.51 532.68-25.94 533.33-25.37 533.33-24.66 533.33-23.95 533.13-23.54 532.94-23.12 532.62-22.83L532.62-22.83Q531.96-22.22 531.38-22.22L531.38-22.22Q530.45-22.22 530.01-22.41L530.01-22.41Q529.25-22.75 528.67-22.75 528.08-22.75 527.18-21.81 526.27-20.87 525.44-19.21L525.44-19.21Q523.42-15.16 523.42-10.42L523.42-10.42 523.42 0 512.92 0ZM552.81 0L552.81-1.61Q549.68 0.46 545.88 0.46L545.88 0.46Q540.82 0.46 537.77-2.08L537.77-2.08Q534.6-4.69 534.6-9.33L534.6-9.33Q534.6-13.43 537.75-16.06L537.75-16.06Q540.97-18.73 546.22-18.73L546.22-18.73Q549.73-18.73 552.81-17.38L552.81-17.38 552.81-24.1Q550.59-24.73 548.89-24.73 547.19-24.73 546.02-24.58 544.85-24.44 543.8-24.15L543.8-24.15Q541.53-23.51 540.36-22.44L540.36-22.44Q539.67-21.8 539.11-21.8 538.55-21.8 538.26-22.08 537.97-22.36 537.97-22.71 537.97-23.05 538.09-23.33 538.21-23.61 538.55-23.9L538.55-23.9Q539.28-24.54 540.99-25.17L540.99-25.17Q544.53-26.51 548.1-26.51L548.1-26.51Q558.94-26.51 561.94-21.34L561.94-21.34Q563.26-19.04 563.26-15.31L563.26-15.31 563.26 0 552.81 0ZM552.81-3.71L552.81-15.48Q549.73-16.97 546.68-16.97L546.68-16.97Q546.19-16.97 545.75-16.89L545.75-16.89 545.75-1.37Q545.88-1.34 546.02-1.34 546.17-1.34 546.31-1.34L546.31-1.34Q549.66-1.34 552.81-3.71L552.81-3.71ZM580.66-24.54L580.66-1.56Q581.81-1.34 582.97-1.34 584.13-1.34 585.22-1.53 586.3-1.71 587.28-2.05L587.28-2.05Q589.35-2.78 590.62-3.91L590.62-3.91Q591.53-4.69 591.94-4.69L591.94-4.69Q592.87-4.69 592.87-3.86 592.87-3.03 591.36-1.88L591.36-1.88Q587.84 0.46 582.91 0.46L582.91 0.46Q576.49 0.46 572.53-3.39L572.53-3.39Q568.65-7.2 568.65-13.28L568.65-13.28Q568.65-19.04 572.78-22.8L572.78-22.8Q576.88-26.51 583.08-26.51L583.08-26.51Q586.62-26.51 589.89-25.05L589.89-25.05Q592.38-23.97 592.38-22.83L592.38-22.83Q592.38-22.34 592.1-22.08 591.82-21.83 591.48-21.83L591.48-21.83Q590.97-21.83 590.16-22.39L590.16-22.39Q588.57-23.9 585.45-24.51L585.45-24.51Q584.32-24.73 582.98-24.73 581.64-24.73 580.66-24.54L580.66-24.54ZM598.43 0L598.43-34.55 608.93-34.55 608.93-15.92 619.21-23.36Q620.68-24.46 621.55-25.49 622.43-26.51 623.04-26.51L623.04-26.51Q624.14-26.51 624.14-25.61L624.14-25.61Q624.14-24.93 623.31-24.24L623.31-24.24 617.09-19.43 626.07 0 615.16 0 608.93-13.77 608.93 0 598.43 0ZM653.17-5.93L653.17-5.93Q654.12-5.93 654.12-5.05L654.12-5.05Q654.12-4.39 653.27-3.49L653.27-3.49Q649.41 0.46 642.69 0.46L642.69 0.46Q636.66 0.46 632.54-3.17L632.54-3.17Q628.27-6.96 628.27-12.74L628.27-12.74Q628.27-18.65 632.12-22.46L632.12-22.46Q636.2-26.51 642.96-26.51L642.96-26.51Q648.38-26.51 652.07-23.22L652.07-23.22Q656.05-19.68 656.05-13.92L656.05-13.92Q656.05-13.09 656-12.16L656-12.16 639.89-12.16 639.89-1.68Q641.55-1.34 643.62-1.34L643.62-1.34Q648.02-1.34 651.12-4.25L651.12-4.25Q651.75-4.88 652.02-5.25L652.02-5.25Q652.58-5.93 653.17-5.93ZM646.65-13.94L646.65-24.27Q645.06-24.73 643.06-24.73 641.06-24.73 639.89-24.46L639.89-24.46 639.89-13.94 646.65-13.94ZM662.25 0L662.25-26.07 672.75-26.07 672.75-18.41Q674.43-22.58 676.37-24.55 678.31-26.51 680.26-26.51L680.26-26.51Q681.36-26.51 682.01-25.94 682.66-25.37 682.66-24.66 682.66-23.95 682.46-23.54 682.27-23.12 681.95-22.83L681.95-22.83Q681.29-22.22 680.7-22.22L680.7-22.22Q679.78-22.22 679.34-22.41L679.34-22.41Q678.58-22.75 677.99-22.75 677.41-22.75 676.5-21.81 675.6-20.87 674.77-19.21L674.77-19.21Q672.75-15.16 672.75-10.42L672.75-10.42 672.75 0 662.25 0ZM709.97-4.35L703.14-4.35Q698.67-4.35 697.03-4.42L697.03-4.42 696.32-2.73Q696.01-2.03 695.74-1.25L695.74-1.25Q695.18 0.27 694.18 0.27L694.18 0.27Q693.71 0.27 693.42-0.02 693.13-0.32 693.13-0.63L693.13-0.63Q693.13-1.17 693.59-1.83L693.59-1.83Q694.32-2.86 695.03-4.52L695.03-4.52Q692.93-4.71 692.93-5.74 692.93-6.76 694.13-6.76L694.13-6.76Q694.86-6.76 695.84-6.52L695.84-6.52 708.02-36.11 724.72 0 712 0 709.97-4.35ZM703.06-19.29L697.81-6.32Q700.16-6.13 702.01-6.13L702.01-6.13 709.17-6.13 703.06-19.29ZM746.61 0.46L746.61 0.46Q743.22 0.46 740.05-1.07L740.05-1.07 740.05 7.81 730.01 7.81 730.01-26.07 740.05-26.07 740.05-24.73Q743.25-26.51 746.59-26.51 749.93-26.51 752.5-25.51 755.06-24.51 756.89-22.75L756.89-22.75Q760.68-19.04 760.68-13.26L760.68-13.26Q760.68-7.42 756.94-3.56L756.94-3.56Q753.08 0.46 746.61 0.46ZM746.54-24.73L746.54-24.73Q742.93-24.73 740.05-22.73L740.05-22.73 740.05-3.25Q743.34-1.34 747.23-1.34L747.23-1.34 747.86-1.34Q748.15-1.34 748.42-1.39L748.42-1.39 748.42-24.58Q747.49-24.73 746.54-24.73ZM783.53 0.46L783.53 0.46Q780.13 0.46 776.96-1.07L776.96-1.07 776.96 7.81 766.92 7.81 766.92-26.07 776.96-26.07 776.96-24.73Q780.16-26.51 783.5-26.51 786.85-26.51 789.41-25.51 791.97-24.51 793.8-22.75L793.8-22.75Q797.59-19.04 797.59-13.26L797.59-13.26Q797.59-7.42 793.85-3.56L793.85-3.56Q790 0.46 783.53 0.46ZM783.45-24.73L783.45-24.73Q779.84-24.73 776.96-22.73L776.96-22.73 776.96-3.25Q780.25-1.34 784.14-1.34L784.14-1.34 784.77-1.34Q785.06-1.34 785.33-1.39L785.33-1.39 785.33-24.58Q784.41-24.73 783.45-24.73Z" opacity="1" transform="matrix(1,0,0,1,0,0)" fill="#ffffff" class="undefined-text-1" data-fill-palette-color="secondary" id="text-1"></path></svg></g></svg></g></svg></g></svg></g><g><svg viewBox="0 0 238.73784025854542 238.73708133380262" height="238.73708133380262" width="238.73784025854542"><g><svg xmlns="http://www.w3.org/2000/svg" xmlns:xlink="http://www.w3.org/1999/xlink" version="1.1" x="0" y="0" viewBox="1.9998104572296143 2 60.00019073486328 60" style="enable-background:new 0 0 64 64;" xml:space="preserve" height="238.73708133380262" width="238.73784025854542" class="icon-icon-0" data-fill-palette-color="accent" id="icon-0"><path d="M12 31H5.414l2.293-2.293-1.414-1.414-4 4c-0.286 0.286-0.372 0.716-0.217 1.09 0.051 0.124 0.132 0.227 0.223 0.318l-0.007 0.007 4 4 1.414-1.414L5.414 33H12V31z" fill="#ffffff" data-fill-palette-color="accent"></path><path d="M53 33h5.586l-2.293 2.293 1.414 1.414 4-4-0.007-0.007c0.091-0.091 0.172-0.194 0.223-0.318 0.155-0.374 0.069-0.804-0.217-1.09l-4-4-1.414 1.414L58.586 31H53V33z" fill="#ffffff" data-fill-palette-color="accent"></path><path d="M33 12V5.414l2.293 2.293 1.414-1.414-4-4-0.007 0.007c-0.091-0.091-0.194-0.172-0.318-0.223-0.375-0.156-0.804-0.07-1.09 0.217l-4 4 1.414 1.414L31 5.414V12H33z" fill="#ffffff" data-fill-palette-color="accent"></path><path d="M31 52v5.586l-2.293-2.293-1.414 1.414 4 4C31.484 60.898 31.74 61 32 61c0.129 0 0.259-0.025 0.383-0.076 0.124-0.051 0.227-0.132 0.318-0.223l0.007 0.007 4-4-1.414-1.414L33 57.586V52H31z" fill="#ffffff" data-fill-palette-color="accent"></path><path d="M14 18v28c0 2.206 1.794 4 4 4h32c0.552 0 1-0.448 1-1V21v-6c0-0.552-0.448-1-1-1H18C15.794 14 14 15.794 14 18zM18 48c-1.103 0-2-0.897-2-2V21.444C16.591 21.788 17.268 22 18 22h31v6h-8c-3.86 0-7 3.14-7 7s3.14 7 7 7h8v6H18zM49 30v10h-8c-2.757 0-5-2.243-5-5s2.243-5 5-5H49zM49 20H18c-1.103 0-2-0.897-2-2s0.897-2 2-2h31V20z" fill="#ffffff" data-fill-palette-color="accent"></path><path d="M38 35c0 1.654 1.346 3 3 3s3-1.346 3-3-1.346-3-3-3S38 33.346 38 35zM42 35c0 0.551-0.449 1-1 1s-1-0.449-1-1 0.449-1 1-1S42 34.449 42 35z" fill="#ffffff" data-fill-palette-color="accent"></path><path d="M26 29.051V27h-2v2.051c-1.692 0.245-3 1.691-3 3.449 0 1.93 1.57 3.5 3.5 3.5h1c0.827 0 1.5 0.673 1.5 1.5S26.327 39 25.5 39h-1c-0.827 0-1.5-0.673-1.5-1.5V37h-2v0.5c0 1.758 1.308 3.204 3 3.449V43h2v-2.051c1.692-0.245 3-1.691 3-3.449 0-1.93-1.57-3.5-3.5-3.5h-1c-0.827 0-1.5-0.673-1.5-1.5s0.673-1.5 1.5-1.5h1c0.827 0 1.5 0.673 1.5 1.5V33h2v-0.5C29 30.742 27.692 29.296 26 29.051z" fill="#ffffff" data-fill-palette-color="accent"></path><path d="M60 58.586l-8.293-8.293-1.414 1.414L58.586 60H55v2h6c0.129 0 0.259-0.025 0.383-0.076C61.756 61.769 62 61.404 62 61v-6h-2V58.586z" fill="#ffffff" data-fill-palette-color="accent"></path><path d="M61.383 2.076C61.258 2.024 61.129 2.009 61 2.009V2h-6v2h3.586l-8.293 8.293 1.414 1.414L60 5.414V9h2V3C62 2.596 61.756 2.231 61.383 2.076z" fill="#ffffff" data-fill-palette-color="accent"></path><path d="M4 5.414l8.293 8.293 1.414-1.414L5.414 4H9V2H3v0.009c-0.129 0-0.259 0.016-0.383 0.068C2.244 2.231 2 2.596 2 3v6h2V5.414z" fill="#ffffff" data-fill-palette-color="accent"></path><path d="M2.617 61.924C2.741 61.975 2.871 62 3 62h6v-2H5.414l8.293-8.293-1.414-1.414L4 58.586V55H2v6C2 61.404 2.244 61.769 2.617 61.924z" fill="#ffffff" data-fill-palette-color="accent"></path></svg></g></svg></g></svg></g></svg><rect width="395.52" height="145.17321693343254" fill="none" stroke="none" visibility="hidden"></rect></g></svg></g></svg>